<svg width="215" height="233" viewBox="0 0 215 233" fill="none" xmlns="http://www.w3.org/2000/svg">
<path d="M130.833 0H77.3815C51.8461 0 39.0784 0 29.1516 4.55396C18.2725 9.54474 9.54474 18.2725 4.55396 29.1516C0 39.0784 0 51.8461 0 77.3815V85.0552C0 103.791 0 113.159 2.38747 120.605C7.34219 136.058 19.1872 147.929 34.6295 152.918C42.0704 155.322 51.5305 155.343 70.4506 155.384H70.4508C76.1801 155.397 81.5253 155.412 86.2299 155.427C96.8717 155.461 105.5 146.846 105.5 136.204C105.5 125.598 96.9019 117 86.2956 117H72.25C64.578 117 60.742 117 57.5928 116.165C48.9142 113.864 42.1361 107.086 39.835 98.4072C39 95.258 39 91.422 39 83.75V77C39 62.9987 39 55.998 41.7248 50.6502C44.1217 45.9462 47.9462 42.1217 52.6502 39.7248C57.998 37 64.9987 37 79 37H120C128.284 37 135 43.7157 135 52C135 60.2843 141.716 67 150 67H155.25C166.434 67 175.5 57.9338 175.5 46.75V44.6667C175.5 19.9979 155.502 0 130.833 0Z" fill="royalblue"/>
<path d="M83.6667 232.5L137.118 232.5C162.654 232.5 175.422 232.5 185.348 227.946C196.227 222.955 204.955 214.227 209.946 203.348C214.5 193.422 214.5 180.654 214.5 155.118V147.445C214.5 128.709 214.5 119.341 212.113 111.895C207.158 96.4417 195.313 84.5707 179.871 79.582C172.43 77.1782 162.97 77.1574 144.049 77.1158H144.049C138.32 77.1031 132.975 77.0882 128.27 77.0732C117.628 77.0394 109 85.6538 109 96.2956C109 106.902 117.598 115.5 128.204 115.5H142.25C149.922 115.5 153.758 115.5 156.907 116.335C165.586 118.636 172.364 125.414 174.665 134.093C175.5 137.242 175.5 141.078 175.5 148.75V155.5C175.5 169.501 175.5 176.502 172.775 181.85C170.378 186.554 166.554 190.378 161.85 192.775C156.502 195.5 149.501 195.5 135.5 195.5H94.5C86.2157 195.5 79.5 188.784 79.5 180.5C79.5 172.216 72.7843 165.5 64.5 165.5H59.25C48.0662 165.5 39 174.566 39 185.75V187.833C39 212.502 58.998 232.5 83.6667 232.5Z" fill="#B6EADA"/>
</svg>
